<svg id="1202cfd3-3d74-4739-90b0-fdcc69e60139" data-name="Layer 1" xmlns="http://www.w3.org/2000/svg" viewBox="0 0 16 16"><title>ticks</title><path d="M15.26367,4.82275a.46938.46938,0,0,1-.14551.35449L14.5,5.79535l-.5.5-.51062.51056-.50012.50006L8.39844,11.89648a.49577.49577,0,0,1-.708-.001L3.7998,8.00488a.50458.50458,0,0,1,.00049-.7085l1.0625-1.0625a.504.504,0,0,1,.708-.00049L8.04492,8.71582,13.3457,3.40625a.49235.49235,0,0,1,.13373-.08905l.00995-.00665V3.315l.098-.02118.0083-.00183.002.00006a.48153.48153,0,0,1,.22876.00476A.49086.49086,0,0,1,14,3.36823a.47805.47805,0,0,1,.05566.03754l1.0625,1.063A.46832.46832,0,0,1,15.26367,4.82275ZM13.48938,7.51257v5.97675H2.51062V2.51062H13.48938V2.8031A1,1,0,0,1,14,2.8194a.96438.96438,0,0,1,.41016.23334l.08984.0899V1.5H1.5v13h13V6.502l-.5.5Z"/></svg>