<?xml version="1.0" encoding="iso-8859-1"?>
<!-- Generator: Adobe Illustrator 19.0.0, SVG Export Plug-In . SVG Version: 6.00 Build 0)  -->
<svg version="1.1" id="Layer_1" xmlns="http://www.w3.org/2000/svg" xmlns:xlink="http://www.w3.org/1999/xlink" x="0px" y="0px"
	 viewBox="0 0 511.999 511.999" style="enable-background:new 0 0 511.999 511.999;" xml:space="preserve">
<g>
	<g>
		<rect x="163.431" y="131.108" width="104.716" height="30.417"/>
	</g>
</g>
<g>
	<g>
		<rect x="115.727" y="181.804" width="200.135" height="30.417"/>
	</g>
</g>
<g>
	<g>
		<rect x="115.727" y="232.499" width="200.135" height="30.417"/>
	</g>
</g>
<g>
	<g>
		<rect x="115.727" y="283.205" width="200.135" height="30.417"/>
	</g>
</g>
<g>
	<g>
		<rect x="115.727" y="380.185" width="200.135" height="30.417"/>
	</g>
</g>
<g>
	<g>
		<rect x="115.727" y="430.88" width="200.135" height="30.417"/>
	</g>
</g>
<g>
	<g>
		<path d="M466.184,0H126.223v40.203H86.019v40.203H45.815v431.592h339.961v-40.203h40.203v-40.203h40.205L466.184,0L466.184,0z
			 M355.359,471.796v9.787h-0.001H76.232V110.824h9.787h269.339V471.796z M395.562,431.593v9.786h-9.786V80.408H116.437v-9.786
			h9.786h269.339V431.593z M435.767,401.175h-9.787V40.203H156.64v-9.786h279.127V401.175z"/>
	</g>
</g>
<g>
</g>
<g>
</g>
<g>
</g>
<g>
</g>
<g>
</g>
<g>
</g>
<g>
</g>
<g>
</g>
<g>
</g>
<g>
</g>
<g>
</g>
<g>
</g>
<g>
</g>
<g>
</g>
<g>
</g>
</svg>
