<svg xmlns="http://www.w3.org/2000/svg" xmlns:xlink="http://www.w3.org/1999/xlink" version="1.1" x="0px" y="0px" viewBox="0 0 100 100" enable-background="new 0 0 100 100" xml:space="preserve"><path d="M80.6,80.6c16.9-16.9,16.9-44.3,0-61.2c-16.9-16.9-44.3-16.9-61.2,0C3.1,35.7,2.5,61.7,17.6,78.7L18,79  c-1.6,3.5-4.4,7.9-8.9,10.1C7.6,89.8,8,92,9.6,92.3c4.9,0.8,11.9-0.1,18.4-5l0.1,0.1C44.7,97.1,66.4,94.8,80.6,80.6z M51.8,23.3  c3.9,0,7,3.2,7,7.1c0,3.9-3.2,7.1-7,7.1c-3.9,0-7.1-3.2-7.1-7.2C44.8,26.4,47.9,23.3,51.8,23.3z M40.5,68.8c0.3-2.5,0.7-5.1,1.2-7.6  c0.7-4.4,1.5-8.8,2.3-13.2c0-0.3,0.1-0.6,0.1-0.8c0-1.8-0.6-2.5-2.4-2.7c-0.8-0.1-1.6-0.2-2.3-0.4c-0.9-0.3-1.3-1-1.2-1.8  c0.1-0.8,0.6-1.3,1.6-1.4c0.5-0.1,1.1-0.1,1.6-0.1c2.2,0,4.3,0,6.5,0c2.3,0,4.6,0,6.9,0c1.6,0,2.6,0.8,2.7,2.4  c0,1.4-0.2,2.8-0.4,4.1c-0.9,5-1.8,10.1-2.8,15.1c-0.3,1.7-0.6,3.3-0.8,5c-0.1,0.8,0,1.7,0.2,2.4c0.3,1.1,1.1,1.6,2.1,1.5  c0.9-0.1,1.8-0.4,2.6-0.7c0.7-0.3,1.3-0.7,2-1c1-0.4,1.9,0.3,1.6,1.4c-0.2,0.6-0.5,1.2-1,1.7c-2.6,2.6-5.6,4.1-9.3,4.2  c-1.7,0-3.4,0-5.1-0.3C43.6,76,40,72.5,40.5,68.8z"/><text x="0" y="115" fill="#000000" font-size="5px" font-weight="bold" font-family="'Helvetica Neue', Helvetica, Arial-Unicode, Arial, Sans-serif">Created by Gregor Črešnar</text><text x="0" y="120" fill="#000000" font-size="5px" font-weight="bold" font-family="'Helvetica Neue', Helvetica, Arial-Unicode, Arial, Sans-serif">from the Noun Project</text></svg>
