<?xml version="1.0" encoding="utf-8"?>
<!-- Generator: Adobe Illustrator 22.0.1, SVG Export Plug-In . SVG Version: 6.00 Build 0)  -->
<svg version="1.1" id="Layer_1" xmlns="http://www.w3.org/2000/svg" xmlns:xlink="http://www.w3.org/1999/xlink" x="0px" y="0px"
	 viewBox="0 0 59.8 33.4" style="enable-background:new 0 0 59.8 33.4;" xml:space="preserve">
<style type="text/css">
	.st0{fill:#010101;}
</style>
<g>
	<rect x="27.5" y="18.7" class="st0" width="9.8" height="0.6"/>
	<path class="st0" d="M18.4,3h25.8c0.1,0,0.2,0.1,0.2,0.2v12h0.6v-12c0-0.4-0.3-0.8-0.8-0.8H18.4c-0.4,0-0.8,0.3-0.8,0.8v9.8
		c0.2,0.1,0.3,0.2,0.4,0.3l0.2,0.2V3.2C18.2,3.1,18.3,3,18.4,3z"/>
	<rect x="27.5" y="22.6" class="st0" width="9.8" height="0.9"/>
	<path class="st0" d="M29.1,21.2c0,0.5,0.4,0.9,0.9,0.9h2.7c0.5,0,0.9-0.4,0.9-0.9v-0.4h3.8v-0.9h-9.8v0.9h1.5V21.2z M29.7,20.8h3.3
		v0.4c0,0.2-0.1,0.3-0.3,0.3H30c-0.2,0-0.3-0.1-0.3-0.3V20.8z"/>
	<path class="st0" d="M18,1.8h26.6c0.6,0,1,0.5,1,1v12.4h0.9V2.8c0-1.1-0.9-2-2-2H18c-1.1,0-2,0.9-2,2v9.9c0.2,0.1,0.4,0.2,0.6,0.2
		H17V2.8C17,2.3,17.4,1.8,18,1.8z"/>
	<path class="st0" d="M57.1,16.1H40.4c-1.2,0-2.2,1-2.2,2.2v5.5c0,1.1,0.9,2.1,2,2.2v1.3c0,0.2,0.2,0.4,0.4,0.4H44
		c0.2,0,0.4-0.2,0.4-0.4v-1.3h8.6v1.3c0,0.2,0.2,0.4,0.4,0.4h3.3c0.2,0,0.4-0.2,0.4-0.4v-1.3c1.1-0.1,2-1,2-2.2v-5.5
		C59.3,17,58.3,16.1,57.1,16.1z M43.6,26.7h-2.5v-0.9h2.5V26.7z M56.4,26.7H54v-0.9h2.5V26.7z M58.4,23.7c0,0.7-0.6,1.3-1.3,1.3
		H40.4c-0.7,0-1.3-0.6-1.3-1.3v-5.5c0-0.7,0.6-1.3,1.3-1.3h16.7c0.7,0,1.3,0.6,1.3,1.3V23.7z"/>
	<path class="st0" d="M53.7,17.7c-1.8,0-3.3,1.5-3.3,3.3c0,1.8,1.5,3.3,3.3,3.3c1.8,0,3.3-1.5,3.3-3.3C57,19.2,55.5,17.7,53.7,17.7z
		 M53.7,23.3c-1.3,0-2.4-1.1-2.4-2.4c0-1.3,1.1-2.4,2.4-2.4c1.3,0,2.4,1.1,2.4,2.4C56.1,22.3,55,23.3,53.7,23.3z"/>
	<path class="st0" d="M53.7,19.1c-1,0-1.9,0.8-1.9,1.9c0,0.2,0.2,0.4,0.4,0.4c0.2,0,0.4-0.2,0.4-0.4c0-0.6,0.5-1,1-1
		c0.2,0,0.4-0.2,0.4-0.4C54.1,19.3,54,19.1,53.7,19.1z"/>
	<path class="st0" d="M46,18.8h-5.4c-0.2,0-0.4,0.2-0.4,0.4c0,0.2,0.2,0.4,0.4,0.4H46c0.2,0,0.4-0.2,0.4-0.4
		C46.4,19,46.2,18.8,46,18.8z"/>
	<path class="st0" d="M46,20.5h-5.4c-0.2,0-0.4,0.2-0.4,0.4c0,0.2,0.2,0.4,0.4,0.4H46c0.2,0,0.4-0.2,0.4-0.4
		C46.4,20.7,46.2,20.5,46,20.5z"/>
	<path class="st0" d="M46,22.3h-5.4c-0.2,0-0.4,0.2-0.4,0.4c0,0.2,0.2,0.4,0.4,0.4H46c0.2,0,0.4-0.2,0.4-0.4
		C46.4,22.5,46.2,22.3,46,22.3z"/>
	<path class="st0" d="M11.7,24.1c1,0,1.7-0.8,1.7-1.7c0-1-0.8-1.7-1.7-1.7S10,21.4,10,22.4C10,23.3,10.8,24.1,11.7,24.1z M11.7,21.5
		c0.5,0,0.9,0.4,0.9,0.9c0,0.5-0.4,0.9-0.9,0.9c-0.5,0-0.9-0.4-0.9-0.9C10.9,21.9,11.3,21.5,11.7,21.5z"/>
	<path class="st0" d="M16.9,25.8H10c-0.3,0-0.4,0.2-0.4,0.4V28c0,0.3,0.2,0.4,0.4,0.4h6.9c0.3,0,0.4-0.2,0.4-0.4v-1.7
		C17.4,26,17.2,25.8,16.9,25.8z M16.5,27.6h-6.1v-0.9h6.1V27.6z"/>
	<path class="st0" d="M24.7,17.2h-0.6c-0.3,0-0.5,0.1-0.7,0.3l-1,1.4h-0.5l-4.3-4.6c0-0.1-0.2-0.1-0.3-0.1h-1.8
		c-0.2-0.5-0.8-0.9-1.4-0.9h-3.9c-0.8,0-1.5,0.7-1.5,1.5v1.3c0,0.8,0.7,1.5,1.5,1.5h3.9c0.6,0,1.1-0.4,1.4-0.9h0.8l2,2.2H9.1
		c-1,0-1.7,0.8-1.7,1.7v1.3H6.2l-3.3-2.1c-0.1,0-0.1-0.1-0.2-0.1H0.9c-0.3,0-0.4,0.2-0.4,0.4v8.7c0,0.3,0.2,0.4,0.4,0.4h1.7
		c0.1,0,0.2,0,0.2-0.1l3.3-2.1h1.2v1.3c0,1,0.8,1.7,1.7,1.7H13v1.3c0,0.3,0.2,0.4,0.4,0.4h6.9c0.3,0,0.4-0.2,0.4-0.4v-1.3h3.9
		c1,0,1.7-0.8,1.7-1.7V28v-1.7v-7.4C26.5,18,25.7,17.2,24.7,17.2z M14.8,16.1c0,0.3-0.3,0.6-0.6,0.6h-3.9c-0.3,0-0.6-0.3-0.6-0.6
		v-1.3c0-0.3,0.3-0.6,0.6-0.6h3.9c0.3,0,0.6,0.3,0.6,0.6V16.1z M5.7,26.5l-3.2,1.9H1.3v-7.8h1.2l3.2,2V26.5z M7.4,26.3H6.5v-3.5h0.9
		V26.3z M16.8,16c-0.1-0.1-0.2-0.1-0.3-0.1h-0.9V15h1.5l3.6,3.9h-1.2L16.8,16z M20,31h-6.1v-0.9H20V31z M25.6,25.8h-1.3
		c-0.3,0-0.4,0.2-0.4,0.4s0.2,0.4,0.4,0.4h1.3v0.9h-2.2c-0.3,0-0.4,0.2-0.4,0.4s0.2,0.4,0.4,0.4h2.2c0,0.5-0.4,0.9-0.9,0.9h-4.3
		h-6.9H9.1c-0.5,0-0.9-0.4-0.9-0.9v-1.7v-4.3v-1.7c0-0.5,0.4-0.9,0.9-0.9h10.2h2.4h0.9c0.1,0,0.3,0,0.3-0.2l1.2-1.6h0.6
		c0.5,0,0.9,0.4,0.9,0.9V25.8z"/>
</g>
</svg>
