<?xml version="1.0" encoding="utf-8"?>
<!-- Generator: Adobe Illustrator 22.0.1, SVG Export Plug-In . SVG Version: 6.00 Build 0)  -->
<svg version="1.1" id="Layer_1" xmlns="http://www.w3.org/2000/svg" xmlns:xlink="http://www.w3.org/1999/xlink" x="0px" y="0px"
	 viewBox="0 0 386 390.2" style="enable-background:new 0 0 386 390.2;" xml:space="preserve">
<g>
	<path d="M50.3,350.9h13.9l-4.8,18.7c-0.6,2.2,0.2,4.6,2,6.1c1.1,0.9,2.5,1.4,3.8,1.4c0.9,0,1.7-0.2,2.5-0.6l55.2-25.6h150.7
		c16.7,0,30.3-13.6,30.3-30.3V198c0-16.7-13.6-30.3-30.3-30.3H50.3C33.6,167.7,20,181.3,20,198v122.6
		C20,337.3,33.6,350.9,50.3,350.9z M32,198c0-10.1,8.2-18.3,18.3-18.3h223.4c10.1,0,18.3,8.2,18.3,18.3v122.6
		c0,10.1-8.2,18.3-18.3,18.3h-152c-0.9,0-1.7,0.2-2.5,0.6l-44.9,20.8l3.5-13.9c0.5-1.8,0.1-3.7-1.1-5.2c-1.1-1.5-2.9-2.3-4.7-2.3
		H50.3c-10.1,0-18.3-8.2-18.3-18.3V198z"/>
	<path d="M65.2,214.9h193.6c3.3,0,6-2.7,6-6c0-3.3-2.7-6-6-6H65.2c-3.3,0-6,2.7-6,6C59.2,212.3,61.9,214.9,65.2,214.9z"/>
	<path d="M65.2,248h193.6c3.3,0,6-2.7,6-6c0-3.3-2.7-6-6-6H65.2c-3.3,0-6,2.7-6,6C59.2,245.3,61.9,248,65.2,248z"/>
	<path d="M65.2,281.1h193.6c3.3,0,6-2.7,6-6c0-3.3-2.7-6-6-6H65.2c-3.3,0-6,2.7-6,6C59.2,278.4,61.9,281.1,65.2,281.1z"/>
	<path d="M65.2,314.1h193.6c3.3,0,6-2.7,6-6c0-3.3-2.7-6-6-6H65.2c-3.3,0-6,2.7-6,6C59.2,311.5,61.9,314.1,65.2,314.1z"/>
	<path d="M213,44.4v71.9c0,16.7,13.6,30.3,30.3,30.3H269l48.2,22.4c0.8,0.4,1.7,0.6,2.5,0.6c1.1,0,2.2-0.3,3.2-0.9
		c1.7-1.1,2.8-3,2.8-5l0.2-17h18.1c16.7,0,30.3-13.6,30.3-30.3V44.4c0-16-12.4-29.1-28.1-30.2H241.1C225.4,15.3,213,28.5,213,44.4z
		 M225,44.4c0-10.1,8.2-18.3,18.3-18.3h100.8c10.1,0,18.3,8.2,18.3,18.3v71.9c0,10.1-8.2,18.3-18.3,18.3h-24c-3.3,0-6,2.6-6,5.9
		l-0.2,13.7l-41-19c-0.8-0.4-1.7-0.6-2.5-0.6h-27.1c-10.1,0-18.3-8.2-18.3-18.3V44.4z"/>
	<path d="M273.7,72.2c3.3,0,6-2.7,6-6c0-7.7,6.3-14,14-14c7.7,0,14,6.3,14,14c0,4.9-2.5,9.3-6.6,11.9c-9.2,5.3-14.6,15-14.3,25.4
		c0.1,3.2,2.8,5.8,6,5.8c0.1,0,0.1,0,0.2,0c3.3-0.1,5.9-2.9,5.8-6.2c-0.2-6,3-11.6,8.3-14.6c0.1-0.1,0.2-0.1,0.3-0.2
		c7.7-4.8,12.3-13.1,12.3-22.1c0-14.4-11.7-26-26-26c-14.4,0-26,11.7-26,26C267.7,69.5,270.3,72.2,273.7,72.2z"/>
	<path d="M292.9,115.3c-1.6,0-3.1,0.6-4.2,1.8c-1.1,1.1-1.8,2.7-1.8,4.2c0,1.6,0.6,3.1,1.8,4.2c1.1,1.1,2.7,1.8,4.2,1.8
		c1.6,0,3.1-0.6,4.2-1.8c1.1-1.1,1.8-2.7,1.8-4.2c0-1.6-0.6-3.1-1.8-4.2C296,116,294.4,115.3,292.9,115.3z"/>
</g>
</svg>
