<?xml version="1.0" encoding="utf-8"?>
<!-- Generator: Adobe Illustrator 22.0.1, SVG Export Plug-In . SVG Version: 6.00 Build 0)  -->
<svg version="1.1" id="Layer_1" xmlns="http://www.w3.org/2000/svg" xmlns:xlink="http://www.w3.org/1999/xlink" x="0px" y="0px"
	 viewBox="0 0 30.1 30.1" style="enable-background:new 0 0 30.1 30.1;" xml:space="preserve">
<style type="text/css">
	.st0{fill:#010101;}
</style>
<path class="st0" d="M3.9,24.2c-0.5,0-1,0.2-1.4,0.6c-0.8,0.8-0.8,2,0,2.8c0.4,0.4,0.9,0.6,1.4,0.6c0.5,0,1-0.2,1.4-0.6
	c0.4-0.4,0.6-0.9,0.6-1.4c0-0.5-0.2-1-0.6-1.4C5,24.4,4.5,24.2,3.9,24.2z M4.7,26.9c-0.4,0.4-1.1,0.4-1.5,0c-0.4-0.4-0.4-1.1,0-1.5
	c0.2-0.2,0.5-0.3,0.7-0.3s0.5,0.1,0.7,0.3C5.1,25.8,5.1,26.5,4.7,26.9z"/>
<path class="st0" d="M20,9.4l-3.4,3.4c-0.2,0.2-0.2,0.5,0,0.6c0.2,0.2,0.5,0.2,0.7,0l3.4-3.4c0.2-0.2,0.2-0.5,0-0.7
	C20.5,9.2,20.2,9.2,20,9.4z"/>
<path class="st0" d="M21.5,7.9l-0.4,0.4c-0.2,0.2-0.2,0.5,0,0.7c0.1,0.1,0.2,0.1,0.3,0.1c0.1,0,0.2,0,0.3-0.1l0.4-0.4
	c0.2-0.2,0.2-0.5,0-0.7C22,7.7,21.7,7.7,21.5,7.9z"/>
<path class="st0" d="M21.8,16.2c-0.1-0.1-0.2-0.1-0.3-0.1l-2.3-0.2c-0.1,0-0.3,0-0.4,0.1l-0.5,0.5L18,16.1l5.5-6.2
	c1.8,0.6,3.8,0.1,5.1-1.3c1.2-1.2,1.7-3,1.4-4.7c-0.1-0.4-0.5-0.5-0.8-0.2l-2.9,2.9c-0.2,0.2-0.5,0.2-0.7,0l-2.2-2.2
	c-0.2-0.2-0.2-0.5,0-0.7l2.9-2.9c0.3-0.3,0.1-0.7-0.2-0.8c-1.7-0.4-3.4,0.1-4.7,1.4c-1.3,1.3-1.8,3.3-1.3,5.1L14,12.1l-3-3
	c-0.2-0.2-0.5-0.2-0.7,0c-0.2,0.2-0.2,0.5,0,0.7l7.4,7.4l-0.6,0.6L5.7,6.3l0.6-0.6L9,8.4c0.2,0.2,0.5,0.2,0.7,0
	c0.2-0.2,0.1-0.5,0-0.6l-3-3L5.6,2.1C5.5,2,5.5,2,5.4,1.9L1.7,0.1C1.6,0,1.3,0,1.2,0.1L0.1,1.2C0,1.3,0,1.6,0.1,1.7l1.8,3.6
	C2,5.4,2,5.5,2.1,5.6l2.6,1.1l7.2,7.2L1.1,23.5C0.4,24.1,0,24.9,0,25.8c0,0.9,0.3,1.8,1,2.4l0.9,0.9c0.6,0.6,1.4,1,2.3,1
	c0,0,0.1,0,0.1,0C5.1,30,6,29.6,6.6,29l4.7-5.3c0.2-0.2,0.2-0.5,0-0.7c-0.2-0.2-0.5-0.2-0.7,0l-4.7,5.3c-0.4,0.5-1,0.8-1.7,0.8
	c-0.7,0-1.3-0.2-1.7-0.7l-0.9-0.9c-0.5-0.5-0.7-1.1-0.7-1.7c0-0.7,0.3-1.3,0.8-1.7l10.9-9.7l0.5,0.5l-9,7.9
	c-0.3,0.3-0.1,0.8,0.2,0.8c0.5,0.1,1,0.3,1.4,0.7c0.4,0.4,0.6,0.8,0.7,1.3C6.5,26.1,7,26.3,7.2,26l7.8-9l0.5,0.5l-3.7,4.1
	c-0.2,0.2-0.2,0.4,0,0.6c0.2,0.2,0.5,0.2,0.7,0l3.6-4.1l0.2,0.2L16,18.8c-0.1,0.1-0.1,0.2-0.1,0.4l0.2,2.3c0,0.1,0.1,0.2,0.1,0.3
	l7.6,7.6c0.4,0.4,1,0.7,1.7,0.7s1.2-0.2,1.7-0.7l2.3-2.3c0.4-0.4,0.7-1,0.7-1.7s-0.2-1.2-0.7-1.7L21.8,16.2z M2.7,4.8L1,1.6L1.6,1
	l3.2,1.6l1,2.3L4.9,5.7L2.7,4.8z M7.1,24.7c-0.3-0.8-1-1.4-1.7-1.7l8.4-7.4l0.6,0.6L7.1,24.7z M17.3,15.4l-2.7-2.7l6.3-5.6
	c0.2-0.1,0.3-0.4,0.2-0.6c-0.6-1.5-0.2-3.3,0.9-4.4c0.8-0.8,1.8-1.2,2.9-1.2l-2.2,2.2c-0.5,0.5-0.5,1.4,0,2L25,7.3
	c0.5,0.5,1.4,0.5,2,0l2.2-2.2c0,1.1-0.4,2.1-1.2,2.9c-1.2,1.2-2.9,1.5-4.4,0.9c-0.2-0.1-0.5,0-0.6,0.2L17.3,15.4z M16.8,19.3
	l2.5-2.5l1.1,0.1l-3.5,3.5L16.8,19.3z M28.7,26.4l-2.3,2.3c-0.3,0.3-0.6,0.4-1,0.4s-0.7-0.1-1-0.4l-7.3-7.3l4.3-4.3l7.3,7.3
	c0.3,0.3,0.4,0.6,0.4,1S29,26.1,28.7,26.4z"/>
<path class="st0" d="M21.7,19.3c-0.3-0.3-0.6-0.4-1-0.4s-0.7,0.1-1,0.4l-0.4,0.4c-0.3,0.3-0.4,0.6-0.4,1s0.1,0.7,0.4,1l5.7,5.7
	c0.3,0.3,0.6,0.4,1,0.4s0.7-0.1,1-0.4l0.4-0.4c0.3-0.3,0.4-0.6,0.4-1c0-0.4-0.1-0.7-0.4-1L21.7,19.3z M26.8,26.3l-0.4,0.4
	c-0.1,0.1-0.2,0.1-0.3,0.1c-0.1,0-0.2,0-0.3-0.1L20,21.1c-0.1-0.1-0.1-0.2-0.1-0.3s0-0.2,0.1-0.3l0.4-0.4c0.1-0.1,0.2-0.1,0.3-0.1
	c0.1,0,0.2,0,0.3,0.1l5.7,5.7c0.1,0.1,0.1,0.2,0.1,0.3C26.9,26.1,26.9,26.3,26.8,26.3z"/>
<path class="st0" d="M21.5,20.8c-0.2-0.2-0.5-0.2-0.7,0c-0.2,0.2-0.2,0.5,0,0.7l0.2,0.2c0.1,0.1,0.2,0.1,0.3,0.1s0.2,0,0.3-0.1
	c0.2-0.2,0.2-0.5,0-0.7L21.5,20.8z"/>
<path class="st0" d="M22.9,22.3c-0.2-0.2-0.5-0.2-0.7,0c-0.2,0.2-0.2,0.5,0,0.7l0.2,0.2c0.1,0.1,0.2,0.1,0.3,0.1
	c0.1,0,0.2,0,0.3-0.1c0.2-0.2,0.2-0.5,0-0.7L22.9,22.3z"/>
<path class="st0" d="M24.3,23.7c-0.2-0.2-0.5-0.2-0.7,0c-0.2,0.2-0.2,0.5,0,0.7l0.2,0.2c0.1,0.1,0.2,0.1,0.3,0.1
	c0.1,0,0.2,0,0.3-0.1c0.2-0.2,0.2-0.5,0-0.7L24.3,23.7z"/>
<path class="st0" d="M25.7,25.1c-0.2-0.2-0.5-0.2-0.7,0c-0.2,0.2-0.2,0.5,0,0.7l0.2,0.2c0.1,0.1,0.2,0.1,0.3,0.1s0.2,0,0.3-0.1
	c0.2-0.2,0.2-0.5,0-0.7L25.7,25.1z"/>
</svg>
