<?xml version="1.0" encoding="utf-8"?>
<!-- Generator: Adobe Illustrator 22.0.1, SVG Export Plug-In . SVG Version: 6.00 Build 0)  -->
<svg version="1.1" id="Layer_1" xmlns="http://www.w3.org/2000/svg" xmlns:xlink="http://www.w3.org/1999/xlink" x="0px" y="0px"
	 viewBox="0 0 54.3 57.2" style="enable-background:new 0 0 54.3 57.2;" xml:space="preserve">
<path d="M41.1,32.4h-28c-0.4,0-0.8,0.4-0.8,0.8c0,0.4,0.4,0.8,0.8,0.8h28c0.4,0,0.8-0.4,0.8-0.8C41.9,32.8,41.5,32.4,41.1,32.4z"/>
<path d="M30.7,28.4h10.4c0.4,0,0.8-0.4,0.8-0.8c0-0.4-0.4-0.8-0.8-0.8H30.7c-0.4,0-0.8,0.4-0.8,0.8C29.9,28.1,30.2,28.4,30.7,28.4z"
	/>
<path d="M30.7,22.8h10.4c0.4,0,0.8-0.4,0.8-0.8c0-0.4-0.4-0.8-0.8-0.8H30.7c-0.4,0-0.8,0.4-0.8,0.8C29.9,22.5,30.2,22.8,30.7,22.8z"
	/>
<path d="M30.7,17.2h10.4c0.4,0,0.8-0.4,0.8-0.8c0-0.4-0.4-0.8-0.8-0.8H30.7c-0.4,0-0.8,0.4-0.8,0.8C29.9,16.9,30.2,17.2,30.7,17.2z"
	/>
<path d="M41.1,42h-28c-0.4,0-0.8,0.4-0.8,0.8c0,0.4,0.4,0.8,0.8,0.8h28c0.4,0,0.8-0.4,0.8-0.8C41.9,42.4,41.5,42,41.1,42z"/>
<path d="M13.1,38.8h11.2c0.4,0,0.8-0.4,0.8-0.8c0-0.4-0.4-0.8-0.8-0.8H13.1c-0.4,0-0.8,0.4-0.8,0.8C12.3,38.5,12.6,38.8,13.1,38.8z"
	/>
<path d="M41.1,37.2H30.7c-0.4,0-0.8,0.4-0.8,0.8c0,0.4,0.4,0.8,0.8,0.8h10.4c0.4,0,0.8-0.4,0.8-0.8C41.9,37.6,41.5,37.2,41.1,37.2z"
	/>
<path d="M28,38.6c0.1-0.2,0.2-0.4,0.2-0.6c0-0.2-0.1-0.4-0.2-0.6c-0.3-0.3-0.8-0.3-1.1,0c-0.1,0.2-0.2,0.4-0.2,0.6
	c0,0.2,0.1,0.4,0.2,0.6c0.2,0.1,0.4,0.2,0.6,0.2C27.7,38.8,27.9,38.7,28,38.6z"/>
<path d="M46.7,6.8h-20V4.4c0-0.4-0.4-0.8-0.8-0.8H13.1c-0.4,0-0.8,0.4-0.8,0.8v2.4H7.5C7,6.8,6.7,7.2,6.7,7.6v43.2
	c0,0.4,0.4,0.8,0.8,0.8h39.2c0.4,0,0.8-0.4,0.8-0.8V7.6C47.5,7.2,47.1,6.8,46.7,6.8z M13.9,7.6V5.2h11.2v20L20,21.4
	c-0.3-0.2-0.7-0.2-1,0l-5.1,3.8V7.6z M45.9,50L8.3,50l0-41.6l4,0l0,18.4c0,0.3,0.2,0.6,0.4,0.7c0.3,0.1,0.6,0.1,0.8-0.1l5.9-4.4
	l5.9,4.4c0.1,0.1,0.1,0.1,0.2,0.1c0,0,0.1,0,0.1,0c0.1,0,0.1,0,0.1,0c0,0,0,0,0,0c0,0,0,0,0,0c0.1,0,0.2,0,0.3-0.1
	c0.3-0.1,0.4-0.4,0.4-0.7l0-18.4l19.2,0L45.9,50z"/>
</svg>
